# xmcd CD database file
#
# Track frame offsets:
#	150
#	18069
#	34738
#	46983
#	70074
#	99592
#	124320
#	144911
#	157362
#	172394
#	187098
#	205285
#	225395
#
# Disc length: 3276 seconds
#
# Revision: 1
# Processed by: cddbd v1.5.2PL0 Copyright (c) Steve Scherf et al.
# Submitted via: CDex 1.70beta2
#
DISCID=b80cca0d
DTITLE=Philip Catherine - Philip Catherine - Guitars Two(2008)
DYEAR=2008
DGENRE=Jazz
TTITLE0=Toscane
TTITLE1=Bois le Baron
TTITLE2=Meline
TTITLE3=Lendas Brasileiras
TTITLE4=Pendulum
TTITLE5=Pourquoi
TTITLE6=Merci Philip
TTITLE7=Aria de Opereta
TTITLE8=Etude pour Peter S
TTITLE9=Souvenirs de Villingen
TTITLE10=Jacobien
TTITLE11=Skating in Central Park
TTITLE12=Marc Moulin on the Beach
EXTD=YEAR: 2008
EXTT0=
EXTT1=
EXTT2=
EXTT3=
EXTT4=
EXTT5=
EXTT6=
EXTT7=
EXTT8=
EXTT9=
EXTT10=
EXTT11=
EXTT12=
PLAYORDER=
